<?xml version="1.0" encoding="utf-8" ?>
<svg baseProfile="full" height="235.00304258661345" version="1.1" width="1068.7376562901773" xmlns="http://www.w3.org/2000/svg" xmlns:ev="http://www.w3.org/2001/xml-events" xmlns:xlink="http://www.w3.org/1999/xlink"><defs /><rect fill="white" height="235.00304258661345" width="1068.7376562901773" x="0" y="0" /><path d="M 25.0,33.06984007358551 " fill="rgb(40,21,147)" stroke="rgb(40,21,147)" stroke-width="2" /><path d="M 39.990577697753906,25.0 " fill="rgb(194,155,81)" stroke="rgb(194,155,81)" stroke-width="2" /><path d="M 40.83791598677635,25.97460798919201 " fill="rgb(192,124,212)" stroke="rgb(192,124,212)" stroke-width="2" /><path d="M +40.83791598677635,25.97460798919201 L 40.88394459336996,27.132637202739716 " fill="rgb(192,124,212)" stroke="rgb(192,124,212)" stroke-width="2" /><path d="M +40.88394459336996,27.132637202739716 L 41.88001323491335,29.63143065571785 " fill="rgb(192,124,212)" stroke="rgb(192,124,212)" stroke-width="2" /><path d="M +41.88001323491335,29.63143065571785 L 42.183464746922255,31.956623643636703 " fill="rgb(192,124,212)" stroke="rgb(192,124,212)" stroke-width="2" /><path d="M +42.183464746922255,31.956623643636703 L 42.74268029257655,36.1838735640049 " fill="rgb(192,124,212)" stroke="rgb(192,124,212)" stroke-width="2" /><path d="M +42.74268029257655,36.1838735640049 L 43.03331561386585,44.66923072934151 " fill="rgb(192,124,212)" stroke="rgb(192,124,212)" stroke-width="2" /><path d="M +43.03331561386585,44.66923072934151 L 42.97406087163836,55.33588245511055 " fill="rgb(192,124,212)" stroke="rgb(192,124,212)" stroke-width="2" /><path d="M +42.97406087163836,55.33588245511055 L 43.20658162701875,70.13620927929878 " fill="rgb(192,124,212)" stroke="rgb(192,124,212)" stroke-width="2" /><path d="M +43.20658162701875,70.13620927929878 L 43.30057259183377,86.7606957256794 " fill="rgb(192,124,212)" stroke="rgb(192,124,212)" stroke-width="2" /><path d="M +43.30057259183377,86.7606957256794 L 44.59106172900647,105.60814335942268 " fill="rgb(192,124,212)" stroke="rgb(192,124,212)" stroke-width="2" /><path d="M +44.59106172900647,105.60814335942268 L 45.01163899432868,123.9651270210743 " fill="rgb(192,124,212)" stroke="rgb(192,124,212)" stroke-width="2" /><path d="M +45.01163899432868,123.9651270210743 L 45.86378290783614,139.0406794846058 " fill="rgb(192,124,212)" stroke="rgb(192,124,212)" stroke-width="2" /><path d="M +45.86378290783614,139.0406794846058 L 46.83624632190913,151.21499612927437 " fill="rgb(192,124,212)" stroke="rgb(192,124,212)" stroke-width="2" /><path d="M +46.83624632190913,151.21499612927437 L 47.611565510742366,157.76261284947395 " fill="rgb(192,124,212)" stroke="rgb(192,124,212)" stroke-width="2" /><path d="M +47.611565510742366,157.76261284947395 L 50.27672819327563,160.70586904883385 " fill="rgb(192,124,212)" stroke="rgb(192,124,212)" stroke-width="2" /><path d="M +50.27672819327563,160.70586904883385 L 49.94935903232545,158.55490371584892 " fill="rgb(192,124,212)" stroke="rgb(192,124,212)" stroke-width="2" /><path d="M +49.94935903232545,158.55490371584892 L 49.902054904960096,154.99319210648537 " fill="rgb(192,124,212)" stroke="rgb(192,124,212)" stroke-width="2" /><path d="M +49.902054904960096,154.99319210648537 L 51.27930501010269,146.5754283964634 " fill="rgb(192,124,212)" stroke="rgb(192,124,212)" stroke-width="2" /><path d="M +51.27930501010269,146.5754283964634 L 52.68990212585777,132.43572369217873 " fill="rgb(192,124,212)" stroke="rgb(192,124,212)" stroke-width="2" /><path d="M +52.68990212585777,132.43572369217873 L 55.5264695873484,115.03190293908119 " fill="rgb(192,124,212)" stroke="rgb(192,124,212)" stroke-width="2" /><path d="M +55.5264695873484,115.03190293908119 L 60.80990159418434,99.68399062752724 " fill="rgb(192,124,212)" stroke="rgb(192,124,212)" stroke-width="2" /><path d="M +60.80990159418434,99.68399062752724 L 66.67336308863014,87.92798891663551 " fill="rgb(192,124,212)" stroke="rgb(192,124,212)" stroke-width="2" /><path d="M +66.67336308863014,87.92798891663551 L 71.19141721632332,79.79632690548897 " fill="rgb(192,124,212)" stroke="rgb(192,124,212)" stroke-width="2" /><path d="M +71.19141721632332,79.79632690548897 L 76.19141840841621,75.80336585640907 " fill="rgb(192,124,212)" stroke="rgb(192,124,212)" stroke-width="2" /><path d="M +76.19141840841621,75.80336585640907 L 77.86182203795761,74.91923004388809 " fill="rgb(192,124,212)" stroke="rgb(192,124,212)" stroke-width="2" /><path d="M +77.86182203795761,74.91923004388809 L 80.00431740190834,79.16003108024597 " fill="rgb(192,124,212)" stroke="rgb(192,124,212)" stroke-width="2" /><path d="M +80.00431740190834,79.16003108024597 L 80.68779119756073,88.70035171508789 " fill="rgb(192,124,212)" stroke="rgb(192,124,212)" stroke-width="2" /><path d="M +80.68779119756073,88.70035171508789 L 79.84948792960495,106.32518768310547 " fill="rgb(192,124,212)" stroke="rgb(192,124,212)" stroke-width="2" /><path d="M +79.84948792960495,106.32518768310547 L 78.87433358933777,127.37585783004761 " fill="rgb(192,124,212)" stroke="rgb(192,124,212)" stroke-width="2" /><path d="M +78.87433358933777,127.37585783004761 L 77.9537279298529,144.0819215774536 " fill="rgb(192,124,212)" stroke="rgb(192,124,212)" stroke-width="2" /><path d="M +77.9537279298529,144.0819215774536 L 78.57985795941204,155.02017736434937 " fill="rgb(192,124,212)" stroke="rgb(192,124,212)" stroke-width="2" /><path d="M +78.57985795941204,155.02017736434937 L 80.39801837410778,160.54147899150848 " fill="rgb(192,124,212)" stroke="rgb(192,124,212)" stroke-width="2" /><path d="M +80.39801837410778,160.54147899150848 L 85.18669398035854,162.20161527395248 " fill="rgb(192,124,212)" stroke="rgb(192,124,212)" stroke-width="2" /><path d="M +85.18669398035854,162.20161527395248 L 92.46255727019161,159.78513926267624 " fill="rgb(192,124,212)" stroke="rgb(192,124,212)" stroke-width="2" /><path d="M +92.46255727019161,159.78513926267624 L 101.0431626578793,153.1775787472725 " fill="rgb(192,124,212)" stroke="rgb(192,124,212)" stroke-width="2" /><path d="M +101.0431626578793,153.1775787472725 L 112.97708184923977,145.94176977872849 " fill="rgb(192,124,212)" stroke="rgb(192,124,212)" stroke-width="2" /><path d="M +112.97708184923977,145.94176977872849 L 124.3369642039761,135.23653715848923 " fill="rgb(192,124,212)" stroke="rgb(192,124,212)" stroke-width="2" /><path d="M +124.3369642039761,135.23653715848923 L 135.02809913363308,125.80356031656265 " fill="rgb(192,124,212)" stroke="rgb(192,124,212)" stroke-width="2" /><path d="M +135.02809913363308,125.80356031656265 L 142.04543085303158,118.45645874738693 " fill="rgb(192,124,212)" stroke="rgb(192,124,212)" stroke-width="2" /><path d="M +142.04543085303158,118.45645874738693 L 145.9435868402943,114.19429063796997 " fill="rgb(192,124,212)" stroke="rgb(192,124,212)" stroke-width="2" /><path d="M +145.9435868402943,114.19429063796997 L 146.07272611465305,110.1301896572113 " fill="rgb(192,124,212)" stroke="rgb(192,124,212)" stroke-width="2" /><path d="M +146.07272611465305,110.1301896572113 L 144.3281184276566,106.02662146091461 " fill="rgb(192,124,212)" stroke="rgb(192,124,212)" stroke-width="2" /><path d="M +144.3281184276566,106.02662146091461 L 139.54645858611912,102.23066687583923 " fill="rgb(192,124,212)" stroke="rgb(192,124,212)" stroke-width="2" /><path d="M +139.54645858611912,102.23066687583923 L 134.77514640893787,100.64597189426422 " fill="rgb(192,124,212)" stroke="rgb(192,124,212)" stroke-width="2" /><path d="M +134.77514640893787,100.64597189426422 L 129.0640659769997,102.4986782670021 " fill="rgb(192,124,212)" stroke="rgb(192,124,212)" stroke-width="2" /><path d="M +129.0640659769997,102.4986782670021 L 123.60073225107044,107.18365043401718 " fill="rgb(192,124,212)" stroke="rgb(192,124,212)" stroke-width="2" /><path d="M +123.60073225107044,107.18365043401718 L 119.36524735298008,118.61414045095444 " fill="rgb(192,124,212)" stroke="rgb(192,124,212)" stroke-width="2" /><path d="M +119.36524735298008,118.61414045095444 L 116.49528460111469,133.447787463665 " fill="rgb(192,124,212)" stroke="rgb(192,124,212)" stroke-width="2" /><path d="M +116.49528460111469,133.447787463665 L 119.56678526010364,152.83370226621628 " fill="rgb(192,124,212)" stroke="rgb(192,124,212)" stroke-width="2" /><path d="M +119.56678526010364,152.83370226621628 L 126.12739698495716,165.91795414686203 " fill="rgb(192,124,212)" stroke="rgb(192,124,212)" stroke-width="2" /><path d="M +126.12739698495716,165.91795414686203 L 135.8630605181679,172.60860711336136 " fill="rgb(192,124,212)" stroke="rgb(192,124,212)" stroke-width="2" /><path d="M +135.8630605181679,172.60860711336136 L 144.38684658613056,171.34280115365982 " fill="rgb(192,124,212)" stroke="rgb(192,124,212)" stroke-width="2" /><path d="M +144.38684658613056,171.34280115365982 L 157.13574008550495,165.61793237924576 " fill="rgb(192,124,212)" stroke="rgb(192,124,212)" stroke-width="2" /><path d="M +157.13574008550495,165.61793237924576 L 170.52045898046345,153.768929541111 " fill="rgb(192,124,212)" stroke="rgb(192,124,212)" stroke-width="2" /><path d="M +170.52045898046345,153.768929541111 L 183.66915778722614,137.25566893815994 " fill="rgb(192,124,212)" stroke="rgb(192,124,212)" stroke-width="2" /><path d="M 227.26308898534626,46.36271506547928 " fill="rgb(5,13,206)" stroke="rgb(5,13,206)" stroke-width="2" /><path d="M +227.26308898534626,46.36271506547928 L 227.3181111505255,51.201666593551636 " fill="rgb(5,13,206)" stroke="rgb(5,13,206)" stroke-width="2" /><path d="M +227.3181111505255,51.201666593551636 L 222.44234868790954,58.22739124298096 " fill="rgb(5,13,206)" stroke="rgb(5,13,206)" stroke-width="2" /><path d="M +222.44234868790954,58.22739124298096 L 221.200335114263,77.15874075889587 " fill="rgb(5,13,206)" stroke="rgb(5,13,206)" stroke-width="2" /><path d="M +221.200335114263,77.15874075889587 L 216.80077591445297,99.6527087688446 " fill="rgb(5,13,206)" stroke="rgb(5,13,206)" stroke-width="2" /><path d="M +216.80077591445297,99.6527087688446 L 213.60734173562378,126.29127621650696 " fill="rgb(5,13,206)" stroke="rgb(5,13,206)" stroke-width="2" /><path d="M +213.60734173562378,126.29127621650696 L 211.89285108353943,151.00536465644836 " fill="rgb(5,13,206)" stroke="rgb(5,13,206)" stroke-width="2" /><path d="M +211.89285108353943,151.00536465644836 L 213.2810124149546,170.2456820011139 " fill="rgb(5,13,206)" stroke="rgb(5,13,206)" stroke-width="2" /><path d="M +213.2810124149546,170.2456820011139 L 214.71077227499336,177.6149344444275 " fill="rgb(5,13,206)" stroke="rgb(5,13,206)" stroke-width="2" /><path d="M +214.71077227499336,177.6149344444275 L 218.38176631834358,177.42962669581175 " fill="rgb(5,13,206)" stroke="rgb(5,13,206)" stroke-width="2" /><path d="M +218.38176631834358,177.42962669581175 L 225.70160233881325,174.57498412579298 " fill="rgb(5,13,206)" stroke="rgb(5,13,206)" stroke-width="2" /><path d="M +225.70160233881325,174.57498412579298 L 232.9416831722483,163.94346099346876 " fill="rgb(5,13,206)" stroke="rgb(5,13,206)" stroke-width="2" /><path d="M +232.9416831722483,163.94346099346876 L 241.695588468574,147.43205051869154 " fill="rgb(5,13,206)" stroke="rgb(5,13,206)" stroke-width="2" /><path d="M 278.69065606500953,48.07418804615736 " fill="rgb(73,42,207)" stroke="rgb(73,42,207)" stroke-width="2" /><path d="M +278.69065606500953,48.07418804615736 L 280.43417730834335,50.34150432795286 " fill="rgb(73,42,207)" stroke="rgb(73,42,207)" stroke-width="2" /><path d="M +280.43417730834335,50.34150432795286 L 280.2350706188008,53.085243217647076 " fill="rgb(73,42,207)" stroke="rgb(73,42,207)" stroke-width="2" /><path d="M +280.2350706188008,53.085243217647076 L 279.7651580302045,60.90035509318113 " fill="rgb(73,42,207)" stroke="rgb(73,42,207)" stroke-width="2" /><path d="M +279.7651580302045,60.90035509318113 L 279.6226877672598,74.75410293787718 " fill="rgb(73,42,207)" stroke="rgb(73,42,207)" stroke-width="2" /><path d="M +279.6226877672598,74.75410293787718 L 275.7712710602209,91.31523918360472 " fill="rgb(73,42,207)" stroke="rgb(73,42,207)" stroke-width="2" /><path d="M +275.7712710602209,91.31523918360472 L 273.1971228821203,114.10841535776854 " fill="rgb(73,42,207)" stroke="rgb(73,42,207)" stroke-width="2" /><path d="M +273.1971228821203,114.10841535776854 L 270.44029153417796,137.47825931757689 " fill="rgb(73,42,207)" stroke="rgb(73,42,207)" stroke-width="2" /><path d="M +270.44029153417796,137.47825931757689 L 267.83633090090007,157.85363744944334 " fill="rgb(73,42,207)" stroke="rgb(73,42,207)" stroke-width="2" /><path d="M +267.83633090090007,157.85363744944334 L 267.71710755769163,173.57655834406614 " fill="rgb(73,42,207)" stroke="rgb(73,42,207)" stroke-width="2" /><path d="M +267.71710755769163,173.57655834406614 L 268.70084362570196,183.68475507944822 " fill="rgb(73,42,207)" stroke="rgb(73,42,207)" stroke-width="2" /><path d="M +268.70084362570196,183.68475507944822 L 272.3562894994393,191.5913451835513 " fill="rgb(73,42,207)" stroke="rgb(73,42,207)" stroke-width="2" /><path d="M +272.3562894994393,191.5913451835513 L 274.6741850906983,194.64029412716627 " fill="rgb(73,42,207)" stroke="rgb(73,42,207)" stroke-width="2" /><path d="M +274.6741850906983,194.64029412716627 L 278.50696133915335,196.54657300561666 " fill="rgb(73,42,207)" stroke="rgb(73,42,207)" stroke-width="2" /><path d="M 360.4926638538018,128.08363374322653 " fill="rgb(142,207,171)" stroke="rgb(142,207,171)" stroke-width="2" /><path d="M +360.4926638538018,128.08363374322653 L 361.85197996441275,123.18335559219122 " fill="rgb(142,207,171)" stroke="rgb(142,207,171)" stroke-width="2" /><path d="M +361.85197996441275,123.18335559219122 L 363.84990009013563,118.25733806937933 " fill="rgb(142,207,171)" stroke="rgb(142,207,171)" stroke-width="2" /><path d="M +363.84990009013563,118.25733806937933 L 361.3707737857476,110.51322843879461 " fill="rgb(142,207,171)" stroke="rgb(142,207,171)" stroke-width="2" /><path d="M +361.3707737857476,110.51322843879461 L 356.1707245046273,104.56762339919806 " fill="rgb(142,207,171)" stroke="rgb(142,207,171)" stroke-width="2" /><path d="M +356.1707245046273,104.56762339919806 L 347.8644953900948,100.79357977956533 " fill="rgb(142,207,171)" stroke="rgb(142,207,171)" stroke-width="2" /><path d="M +347.8644953900948,100.79357977956533 L 336.72049748245627,101.31583519279957 " fill="rgb(142,207,171)" stroke="rgb(142,207,171)" stroke-width="2" /><path d="M +336.72049748245627,101.31583519279957 L 327.7885405952111,107.3751313239336 " fill="rgb(142,207,171)" stroke="rgb(142,207,171)" stroke-width="2" /><path d="M +327.7885405952111,107.3751313239336 L 316.67084025684744,114.48069341480732 " fill="rgb(142,207,171)" stroke="rgb(142,207,171)" stroke-width="2" /><path d="M +316.67084025684744,114.48069341480732 L 307.7699540788308,124.87084873020649 " fill="rgb(142,207,171)" stroke="rgb(142,207,171)" stroke-width="2" /><path d="M +307.7699540788308,124.87084873020649 L 303.6310969525948,136.73155672848225 " fill="rgb(142,207,171)" stroke="rgb(142,207,171)" stroke-width="2" /><path d="M +303.6310969525948,136.73155672848225 L 302.74516391102225,150.63623435795307 " fill="rgb(142,207,171)" stroke="rgb(142,207,171)" stroke-width="2" /><path d="M +302.74516391102225,150.63623435795307 L 306.1080466443673,164.95976336300373 " fill="rgb(142,207,171)" stroke="rgb(142,207,171)" stroke-width="2" /><path d="M +306.1080466443673,164.95976336300373 L 313.107185238041,175.8396065980196 " fill="rgb(142,207,171)" stroke="rgb(142,207,171)" stroke-width="2" /><path d="M +313.107185238041,175.8396065980196 L 323.2392309838906,180.36136724054813 " fill="rgb(142,207,171)" stroke="rgb(142,207,171)" stroke-width="2" /><path d="M +323.2392309838906,180.36136724054813 L 335.41753517929465,178.28873358666897 " fill="rgb(142,207,171)" stroke="rgb(142,207,171)" stroke-width="2" /><path d="M +335.41753517929465,178.28873358666897 L 347.9413281613961,170.72901867330074 " fill="rgb(142,207,171)" stroke="rgb(142,207,171)" stroke-width="2" /><path d="M +347.9413281613961,170.72901867330074 L 358.4457431966439,158.3673145622015 " fill="rgb(142,207,171)" stroke="rgb(142,207,171)" stroke-width="2" /><path d="M +358.4457431966439,158.3673145622015 L 366.9408135348931,143.53069685399532 " fill="rgb(142,207,171)" stroke="rgb(142,207,171)" stroke-width="2" /><path d="M +366.9408135348931,143.53069685399532 L 373.61620413605124,129.94620822370052 " fill="rgb(142,207,171)" stroke="rgb(142,207,171)" stroke-width="2" /><path d="M +373.61620413605124,129.94620822370052 L 379.5990620786324,116.66585110127926 " fill="rgb(142,207,171)" stroke="rgb(142,207,171)" stroke-width="2" /><path d="M 457.6794301206246,113.19797538220882 " fill="rgb(219,149,59)" stroke="rgb(219,149,59)" stroke-width="2" /><path d="M +457.6794301206246,113.19797538220882 L 456.19486826006323,112.29123614728451 " fill="rgb(219,149,59)" stroke="rgb(219,149,59)" stroke-width="2" /><path d="M +456.19486826006323,112.29123614728451 L 457.70912843290716,112.55638837814331 " fill="rgb(219,149,59)" stroke="rgb(219,149,59)" stroke-width="2" /><path d="M +457.70912843290716,112.55638837814331 L 456.64728144649416,112.3110374622047 " fill="rgb(219,149,59)" stroke="rgb(219,149,59)" stroke-width="2" /><path d="M +456.64728144649416,112.3110374622047 L 457.5887450063601,112.62025900185108 " fill="rgb(219,149,59)" stroke="rgb(219,149,59)" stroke-width="2" /><path d="M +457.5887450063601,112.62025900185108 L 457.5930585502647,112.8671451471746 " fill="rgb(219,149,59)" stroke="rgb(219,149,59)" stroke-width="2" /><path d="M +457.5930585502647,112.8671451471746 L 457.2783758654259,112.95350456610322 " fill="rgb(219,149,59)" stroke="rgb(219,149,59)" stroke-width="2" /><path d="M +457.2783758654259,112.95350456610322 L 457.2415456851013,114.58329597488046 " fill="rgb(219,149,59)" stroke="rgb(219,149,59)" stroke-width="2" /><path d="M +457.2415456851013,114.58329597488046 L 457.745726138819,121.93708280101418 " fill="rgb(219,149,59)" stroke="rgb(219,149,59)" stroke-width="2" /><path d="M +457.745726138819,121.93708280101418 L 457.5190976378508,131.74896160140634 " fill="rgb(219,149,59)" stroke="rgb(219,149,59)" stroke-width="2" /><path d="M +457.5190976378508,131.74896160140634 L 460.1872640964575,144.38822070136666 " fill="rgb(219,149,59)" stroke="rgb(219,149,59)" stroke-width="2" /><path d="M +460.1872640964575,144.38822070136666 L 460.61884575756267,156.05730095878243 " fill="rgb(219,149,59)" stroke="rgb(219,149,59)" stroke-width="2" /><path d="M +460.61884575756267,156.05730095878243 L 464.80889522703364,168.35117617622018 " fill="rgb(219,149,59)" stroke="rgb(219,149,59)" stroke-width="2" /><path d="M +464.80889522703364,168.35117617622018 L 470.5113329854794,178.71612349525094 " fill="rgb(219,149,59)" stroke="rgb(219,149,59)" stroke-width="2" /><path d="M +470.5113329854794,178.71612349525094 L 478.3838500943966,186.2013361789286 " fill="rgb(219,149,59)" stroke="rgb(219,149,59)" stroke-width="2" /><path d="M +478.3838500943966,186.2013361789286 L 486.44347691209987,188.87934753671288 " fill="rgb(219,149,59)" stroke="rgb(219,149,59)" stroke-width="2" /><path d="M +486.44347691209987,188.87934753671288 L 497.0440771547146,188.91282654600218 " fill="rgb(219,149,59)" stroke="rgb(219,149,59)" stroke-width="2" /><path d="M +497.0440771547146,188.91282654600218 L 506.91815399797633,185.0721052964218 " fill="rgb(219,149,59)" stroke="rgb(219,149,59)" stroke-width="2" /><path d="M +506.91815399797633,185.0721052964218 L 515.5403330293484,177.4944458086975 " fill="rgb(219,149,59)" stroke="rgb(219,149,59)" stroke-width="2" /><path d="M +515.5403330293484,177.4944458086975 L 522.4176695314236,165.846365459729 " fill="rgb(219,149,59)" stroke="rgb(219,149,59)" stroke-width="2" /><path d="M +522.4176695314236,165.846365459729 L 527.6603176561184,153.77337313489988 " fill="rgb(219,149,59)" stroke="rgb(219,149,59)" stroke-width="2" /><path d="M +527.6603176561184,153.77337313489988 L 529.042135712225,140.47652817564085 " fill="rgb(219,149,59)" stroke="rgb(219,149,59)" stroke-width="2" /><path d="M +529.042135712225,140.47652817564085 L 528.7240750459023,131.4990935404785 " fill="rgb(219,149,59)" stroke="rgb(219,149,59)" stroke-width="2" /><path d="M +528.7240750459023,131.4990935404785 L 526.9041677680798,127.18959099845961 " fill="rgb(219,149,59)" stroke="rgb(219,149,59)" stroke-width="2" /><path d="M +526.9041677680798,127.18959099845961 L 527.4242804688402,127.64361533569172 " fill="rgb(219,149,59)" stroke="rgb(219,149,59)" stroke-width="2" /><path d="M +527.4242804688402,127.64361533569172 L 526.3806175184436,127.47391703771427 " fill="rgb(219,149,59)" stroke="rgb(219,149,59)" stroke-width="2" /><path d="M +526.3806175184436,127.47391703771427 L 528.7783666444011,131.9472140376456 " fill="rgb(219,149,59)" stroke="rgb(219,149,59)" stroke-width="2" /><path d="M +528.7783666444011,131.9472140376456 L 531.2880452466197,142.80609551118687 " fill="rgb(219,149,59)" stroke="rgb(219,149,59)" stroke-width="2" /><path d="M +531.2880452466197,142.80609551118687 L 532.1404508990236,153.93454137491062 " fill="rgb(219,149,59)" stroke="rgb(219,149,59)" stroke-width="2" /><path d="M +532.1404508990236,153.93454137491062 L 537.6814405363984,166.16605463670567 " fill="rgb(219,149,59)" stroke="rgb(219,149,59)" stroke-width="2" /><path d="M +537.6814405363984,166.16605463670567 L 544.030493919272,175.5643344228156 " fill="rgb(219,149,59)" stroke="rgb(219,149,59)" stroke-width="2" /><path d="M +544.030493919272,175.5643344228156 L 555.8827881258912,185.42022469686344 " fill="rgb(219,149,59)" stroke="rgb(219,149,59)" stroke-width="2" /><path d="M +555.8827881258912,185.42022469686344 L 567.1708075446077,189.67397424625233 " fill="rgb(219,149,59)" stroke="rgb(219,149,59)" stroke-width="2" /><path d="M +567.1708075446077,189.67397424625233 L 580.2032308024354,188.8758986000903 " fill="rgb(219,149,59)" stroke="rgb(219,149,59)" stroke-width="2" /><path d="M +580.2032308024354,188.8758986000903 L 593.1004385394044,180.88666188763455 " fill="rgb(219,149,59)" stroke="rgb(219,149,59)" stroke-width="2" /><path d="M +593.1004385394044,180.88666188763455 L 604.0927402419038,168.28245508717373 " fill="rgb(219,149,59)" stroke="rgb(219,149,59)" stroke-width="2" /><path d="M +604.0927402419038,168.28245508717373 L 608.5742263239808,150.98559010075405 " fill="rgb(219,149,59)" stroke="rgb(219,149,59)" stroke-width="2" /><path d="M +608.5742263239808,150.98559010075405 L 609.5225387555547,133.6984859709628 " fill="rgb(219,149,59)" stroke="rgb(219,149,59)" stroke-width="2" /><path d="M +609.5225387555547,133.6984859709628 L 604.6446516853757,118.54606735752895 " fill="rgb(219,149,59)" stroke="rgb(219,149,59)" stroke-width="2" /><path d="M +604.6446516853757,118.54606735752895 L 598.2613256317563,107.77941811131313 " fill="rgb(219,149,59)" stroke="rgb(219,149,59)" stroke-width="2" /><path d="M +598.2613256317563,107.77941811131313 L 590.4120889049955,99.76301896618679 " fill="rgb(219,149,59)" stroke="rgb(219,149,59)" stroke-width="2" /><path d="M +590.4120889049955,99.76301896618679 L 584.1035112482496,94.5682482724078 " fill="rgb(219,149,59)" stroke="rgb(219,149,59)" stroke-width="2" /><path d="M 661.0357507807203,121.97804260300472 " fill="rgb(25,181,7)" stroke="rgb(25,181,7)" stroke-width="2" /><path d="M +661.0357507807203,121.97804260300472 L 660.5616829288192,120.44470372842625 " fill="rgb(25,181,7)" stroke="rgb(25,181,7)" stroke-width="2" /><path d="M +660.5616829288192,120.44470372842625 L 660.6076054903679,120.93468263046816 " fill="rgb(25,181,7)" stroke="rgb(25,181,7)" stroke-width="2" /><path d="M +660.6076054903679,120.93468263046816 L 656.7556755873375,122.17983997659758 " fill="rgb(25,181,7)" stroke="rgb(25,181,7)" stroke-width="2" /><path d="M +656.7556755873375,122.17983997659758 L 652.2153400513344,126.43268562154844 " fill="rgb(25,181,7)" stroke="rgb(25,181,7)" stroke-width="2" /><path d="M +652.2153400513344,126.43268562154844 L 647.5970627996139,132.62045598821715 " fill="rgb(25,181,7)" stroke="rgb(25,181,7)" stroke-width="2" /><path d="M +647.5970627996139,132.62045598821715 L 645.3764083120041,141.7107418854721 " fill="rgb(25,181,7)" stroke="rgb(25,181,7)" stroke-width="2" /><path d="M +645.3764083120041,141.7107418854721 L 641.419704768341,153.64717996912077 " fill="rgb(25,181,7)" stroke="rgb(25,181,7)" stroke-width="2" /><path d="M +641.419704768341,153.64717996912077 L 641.214661418926,167.64013326959684 " fill="rgb(25,181,7)" stroke="rgb(25,181,7)" stroke-width="2" /><path d="M +641.214661418926,167.64013326959684 L 640.1283430005424,183.07621277170256 " fill="rgb(25,181,7)" stroke="rgb(25,181,7)" stroke-width="2" /><path d="M +640.1283430005424,183.07621277170256 L 641.2547442759387,195.89571870164946 " fill="rgb(25,181,7)" stroke="rgb(25,181,7)" stroke-width="2" /><path d="M +641.2547442759387,195.89571870164946 L 646.6799805010669,206.32946647005156 " fill="rgb(25,181,7)" stroke="rgb(25,181,7)" stroke-width="2" /><path d="M +646.6799805010669,206.32946647005156 L 651.0868156398647,210.00304258661345 " fill="rgb(25,181,7)" stroke="rgb(25,181,7)" stroke-width="2" /><path d="M +651.0868156398647,210.00304258661345 L 655.6075999583118,208.51050800876692 " fill="rgb(25,181,7)" stroke="rgb(25,181,7)" stroke-width="2" /><path d="M +655.6075999583118,208.51050800876692 L 660.8340678061359,202.76958174305037 " fill="rgb(25,181,7)" stroke="rgb(25,181,7)" stroke-width="2" /><path d="M +660.8340678061359,202.76958174305037 L 664.1904926742427,190.08990592556074 " fill="rgb(25,181,7)" stroke="rgb(25,181,7)" stroke-width="2" /><path d="M +664.1904926742427,190.08990592556074 L 663.4337635780685,172.2194880922325 " fill="rgb(25,181,7)" stroke="rgb(25,181,7)" stroke-width="2" /><path d="M +663.4337635780685,172.2194880922325 L 659.5146809960715,157.51449412899092 " fill="rgb(25,181,7)" stroke="rgb(25,181,7)" stroke-width="2" /><path d="M +659.5146809960715,157.51449412899092 L 655.8190603996627,150.1969266613014 " fill="rgb(25,181,7)" stroke="rgb(25,181,7)" stroke-width="2" /><path d="M +655.8190603996627,150.1969266613014 L 649.3307061935775,145.98525024252012 " fill="rgb(25,181,7)" stroke="rgb(25,181,7)" stroke-width="2" /><path d="M +649.3307061935775,145.98525024252012 L 645.22790242685,143.42570281820372 " fill="rgb(25,181,7)" stroke="rgb(25,181,7)" stroke-width="2" /><path d="M +645.22790242685,143.42570281820372 L 643.3141015912406,142.89609759347513 " fill="rgb(25,181,7)" stroke="rgb(25,181,7)" stroke-width="2" /><path d="M +643.3141015912406,142.89609759347513 L 642.3758408869617,141.73207632498816 " fill="rgb(25,181,7)" stroke="rgb(25,181,7)" stroke-width="2" /><path d="M +642.3758408869617,141.73207632498816 L 646.0059801186435,142.38168000476435 " fill="rgb(25,181,7)" stroke="rgb(25,181,7)" stroke-width="2" /><path d="M +646.0059801186435,142.38168000476435 L 652.979856475722,142.94639296131209 " fill="rgb(25,181,7)" stroke="rgb(25,181,7)" stroke-width="2" /><path d="M +652.979856475722,142.94639296131209 L 661.1644515837543,143.80703470902517 " fill="rgb(25,181,7)" stroke="rgb(25,181,7)" stroke-width="2" /><path d="M +661.1644515837543,143.80703470902517 L 669.8219427908771,146.83432421879843 " fill="rgb(25,181,7)" stroke="rgb(25,181,7)" stroke-width="2" /><path d="M +669.8219427908771,146.83432421879843 L 679.289460524451,151.14372215466574 " fill="rgb(25,181,7)" stroke="rgb(25,181,7)" stroke-width="2" /><path d="M 714.3320158566348,149.66416529612616 " fill="rgb(29,143,141)" stroke="rgb(29,143,141)" stroke-width="2" /><path d="M +714.3320158566348,149.66416529612616 L 716.8737519229762,150.7397063751705 " fill="rgb(29,143,141)" stroke="rgb(29,143,141)" stroke-width="2" /><path d="M +716.8737519229762,150.7397063751705 L 718.681887879502,151.88887073891237 " fill="rgb(29,143,141)" stroke="rgb(29,143,141)" stroke-width="2" /><path d="M +718.681887879502,151.88887073891237 L 717.6953464443795,152.313280061353 " fill="rgb(29,143,141)" stroke="rgb(29,143,141)" stroke-width="2" /><path d="M +717.6953464443795,152.313280061353 L 718.5087168659084,156.698887005914 " fill="rgb(29,143,141)" stroke="rgb(29,143,141)" stroke-width="2" /><path d="M +718.5087168659084,156.698887005914 L 719.9542232300155,165.48363770591095 " fill="rgb(29,143,141)" stroke="rgb(29,143,141)" stroke-width="2" /><path d="M +719.9542232300155,165.48363770591095 L 719.2626009578817,175.70072020636871 " fill="rgb(29,143,141)" stroke="rgb(29,143,141)" stroke-width="2" /><path d="M +719.2626009578817,175.70072020636871 L 721.8028719420545,187.6746269618161 " fill="rgb(29,143,141)" stroke="rgb(29,143,141)" stroke-width="2" /><path d="M +721.8028719420545,187.6746269618161 L 723.6591271753423,194.40734173404053 " fill="rgb(29,143,141)" stroke="rgb(29,143,141)" stroke-width="2" /><path d="M +723.6591271753423,194.40734173404053 L 722.470992624294,195.81339578377083 " fill="rgb(29,143,141)" stroke="rgb(29,143,141)" stroke-width="2" /><path d="M +722.470992624294,195.81339578377083 L 723.8391937012784,195.72348384419456 " fill="rgb(29,143,141)" stroke="rgb(29,143,141)" stroke-width="2" /><path d="M +723.8391937012784,195.72348384419456 L 723.9008781150915,193.2887546555139 " fill="rgb(29,143,141)" stroke="rgb(29,143,141)" stroke-width="2" /><path d="M +723.9008781150915,193.2887546555139 L 725.6993256346323,186.78027196088806 " fill="rgb(29,143,141)" stroke="rgb(29,143,141)" stroke-width="2" /><path d="M +725.6993256346323,186.78027196088806 L 723.8905080989935,174.79097409406677 " fill="rgb(29,143,141)" stroke="rgb(29,143,141)" stroke-width="2" /><path d="M +723.8905080989935,174.79097409406677 L 721.7292854026891,162.77626438299194 " fill="rgb(29,143,141)" stroke="rgb(29,143,141)" stroke-width="2" /><path d="M +721.7292854026891,162.77626438299194 L 719.453478588257,152.78218550840393 " fill="rgb(29,143,141)" stroke="rgb(29,143,141)" stroke-width="2" /><path d="M +719.453478588257,152.78218550840393 L 717.87057681242,145.82270009675995 " fill="rgb(29,143,141)" stroke="rgb(29,143,141)" stroke-width="2" /><path d="M +717.87057681242,145.82270009675995 L 715.7865178422071,141.0874111787416 " fill="rgb(29,143,141)" stroke="rgb(29,143,141)" stroke-width="2" /><path d="M +715.7865178422071,141.0874111787416 L 717.0365550951101,138.49157555261627 " fill="rgb(29,143,141)" stroke="rgb(29,143,141)" stroke-width="2" /><path d="M +717.0365550951101,138.49157555261627 L 718.5295308963396,136.8906250433065 " fill="rgb(29,143,141)" stroke="rgb(29,143,141)" stroke-width="2" /><path d="M +718.5295308963396,136.8906250433065 L 721.4336438314058,133.53018073597923 " fill="rgb(29,143,141)" stroke="rgb(29,143,141)" stroke-width="2" /><path d="M +721.4336438314058,133.53018073597923 L 729.3534500733949,130.7870369986631 " fill="rgb(29,143,141)" stroke="rgb(29,143,141)" stroke-width="2" /><path d="M +729.3534500733949,130.7870369986631 L 738.9592476026155,124.40274058142677 " fill="rgb(29,143,141)" stroke="rgb(29,143,141)" stroke-width="2" /><path d="M +738.9592476026155,124.40274058142677 L 747.910332812462,116.89005611697212 " fill="rgb(29,143,141)" stroke="rgb(29,143,141)" stroke-width="2" /><path d="M +747.910332812462,116.89005611697212 L 758.0057491199113,107.71509228507057 " fill="rgb(29,143,141)" stroke="rgb(29,143,141)" stroke-width="2" /><path d="M 782.4890936748125,82.33708201209083 " fill="rgb(236,160,221)" stroke="rgb(236,160,221)" stroke-width="2" /><path d="M +782.4890936748125,82.33708201209083 L 783.6137233511545,84.27742107072845 " fill="rgb(236,160,221)" stroke="rgb(236,160,221)" stroke-width="2" /><path d="M +783.6137233511545,84.27742107072845 L 781.8410438136198,87.09427787223831 " fill="rgb(236,160,221)" stroke="rgb(236,160,221)" stroke-width="2" /><path d="M +781.8410438136198,87.09427787223831 L 780.7535568461753,93.20872022071853 " fill="rgb(236,160,221)" stroke="rgb(236,160,221)" stroke-width="2" /><path d="M +780.7535568461753,93.20872022071853 L 778.8006009743549,104.67131091514602 " fill="rgb(236,160,221)" stroke="rgb(236,160,221)" stroke-width="2" /><path d="M +778.8006009743549,104.67131091514602 L 776.5980937168933,119.79600979248062 " fill="rgb(236,160,221)" stroke="rgb(236,160,221)" stroke-width="2" /><path d="M +776.5980937168933,119.79600979248062 L 774.8732676194049,136.44841624656692 " fill="rgb(236,160,221)" stroke="rgb(236,160,221)" stroke-width="2" /><path d="M +774.8732676194049,136.44841624656692 L 773.010854779277,152.74721337715164 " fill="rgb(236,160,221)" stroke="rgb(236,160,221)" stroke-width="2" /><path d="M +773.010854779277,152.74721337715164 L 774.745648263488,171.1098892823793 " fill="rgb(236,160,221)" stroke="rgb(236,160,221)" stroke-width="2" /><path d="M +774.745648263488,171.1098892823793 L 776.2788819358684,186.7264218465425 " fill="rgb(236,160,221)" stroke="rgb(236,160,221)" stroke-width="2" /><path d="M +776.2788819358684,186.7264218465425 L 779.5708819315769,199.03229309478775 " fill="rgb(236,160,221)" stroke="rgb(236,160,221)" stroke-width="2" /><path d="M +779.5708819315769,199.03229309478775 L 785.4247768805362,207.06650210777298 " fill="rgb(236,160,221)" stroke="rgb(236,160,221)" stroke-width="2" /><path d="M +785.4247768805362,207.06650210777298 L 790.4390939162113,208.7428459362127 " fill="rgb(236,160,221)" stroke="rgb(236,160,221)" stroke-width="2" /><path d="M +790.4390939162113,208.7428459362127 L 800.8908303664066,206.65002612629905 " fill="rgb(236,160,221)" stroke="rgb(236,160,221)" stroke-width="2" /><path d="M +800.8908303664066,206.65002612629905 L 813.4828623221256,199.99424962559715 " fill="rgb(236,160,221)" stroke="rgb(236,160,221)" stroke-width="2" /><path d="M +813.4828623221256,199.99424962559715 L 827.4767836020328,190.32128064194694 " fill="rgb(236,160,221)" stroke="rgb(236,160,221)" stroke-width="2" /><path d="M +827.4767836020328,190.32128064194694 L 839.2155226157047,178.48732440033928 " fill="rgb(236,160,221)" stroke="rgb(236,160,221)" stroke-width="2" /><path d="M +839.2155226157047,178.48732440033928 L 851.234504787717,168.44646422425285 " fill="rgb(236,160,221)" stroke="rgb(236,160,221)" stroke-width="2" /><path d="M +851.234504787717,168.44646422425285 L 857.7801396534778,159.3308731750585 " fill="rgb(236,160,221)" stroke="rgb(236,160,221)" stroke-width="2" /><path d="M +857.7801396534778,159.3308731750585 L 862.2647806094028,152.34172908822075 " fill="rgb(236,160,221)" stroke="rgb(236,160,221)" stroke-width="2" /><path d="M +862.2647806094028,152.34172908822075 L 859.7797576175071,146.26172034302726 " fill="rgb(236,160,221)" stroke="rgb(236,160,221)" stroke-width="2" /><path d="M +859.7797576175071,146.26172034302726 L 856.2074694619514,143.01444767275825 " fill="rgb(236,160,221)" stroke="rgb(236,160,221)" stroke-width="2" /><path d="M +856.2074694619514,143.01444767275825 L 853.3774221525528,142.3887316719629 " fill="rgb(236,160,221)" stroke="rgb(236,160,221)" stroke-width="2" /><path d="M +853.3774221525528,142.3887316719629 L 846.2387645826675,143.75215692678466 " fill="rgb(236,160,221)" stroke="rgb(236,160,221)" stroke-width="2" /><path d="M +846.2387645826675,143.75215692678466 L 838.8537532673217,149.9075053469278 " fill="rgb(236,160,221)" stroke="rgb(236,160,221)" stroke-width="2" /><path d="M +838.8537532673217,149.9075053469278 L 831.0382962808944,158.75690503278747 " fill="rgb(236,160,221)" stroke="rgb(236,160,221)" stroke-width="2" /><path d="M +831.0382962808944,158.75690503278747 L 828.3868969068862,170.6672696606256 " fill="rgb(236,160,221)" stroke="rgb(236,160,221)" stroke-width="2" /><path d="M +828.3868969068862,170.6672696606256 L 826.7210478172638,181.5014605061151 " fill="rgb(236,160,221)" stroke="rgb(236,160,221)" stroke-width="2" /><path d="M +826.7210478172638,181.5014605061151 L 833.386340199504,192.0623783604242 " fill="rgb(236,160,221)" stroke="rgb(236,160,221)" stroke-width="2" /><path d="M +833.386340199504,192.0623783604242 L 839.00573319057,199.1814003721811 " fill="rgb(236,160,221)" stroke="rgb(236,160,221)" stroke-width="2" /><path d="M +839.00573319057,199.1814003721811 L 848.5301542864181,201.7050857678987 " fill="rgb(236,160,221)" stroke="rgb(236,160,221)" stroke-width="2" /><path d="M +848.5301542864181,201.7050857678987 L 854.4611102924682,199.76434422889724 " fill="rgb(236,160,221)" stroke="rgb(236,160,221)" stroke-width="2" /><path d="M +854.4611102924682,199.76434422889724 L 863.5340196476318,191.7887873784639 " fill="rgb(236,160,221)" stroke="rgb(236,160,221)" stroke-width="2" /><path d="M +863.5340196476318,191.7887873784639 L 874.1392142162658,178.3328981534578 " fill="rgb(236,160,221)" stroke="rgb(236,160,221)" stroke-width="2" /><path d="M +874.1392142162658,178.3328981534578 L 879.4730830774643,156.63045836845413 " fill="rgb(236,160,221)" stroke="rgb(236,160,221)" stroke-width="2" /><path d="M +879.4730830774643,156.63045836845413 L 884.7018719301559,132.35393716255203 " fill="rgb(236,160,221)" stroke="rgb(236,160,221)" stroke-width="2" /><path d="M +884.7018719301559,132.35393716255203 L 889.9580324278213,103.86280967155471 " fill="rgb(236,160,221)" stroke="rgb(236,160,221)" stroke-width="2" /><path d="M +889.9580324278213,103.86280967155471 L 895.3411049232818,78.47479535499588 " fill="rgb(236,160,221)" stroke="rgb(236,160,221)" stroke-width="2" /><path d="M +895.3411049232818,78.47479535499588 L 894.0545611665584,58.49830938735977 " fill="rgb(236,160,221)" stroke="rgb(236,160,221)" stroke-width="2" /><path d="M +894.0545611665584,58.49830938735977 L 892.956422327552,48.63875581184402 " fill="rgb(236,160,221)" stroke="rgb(236,160,221)" stroke-width="2" /><path d="M +892.956422327552,48.63875581184402 L 890.565135537181,45.568787588272244 " fill="rgb(236,160,221)" stroke="rgb(236,160,221)" stroke-width="2" /><path d="M +890.565135537181,45.568787588272244 L 887.4012479768135,48.32515521207824 " fill="rgb(236,160,221)" stroke="rgb(236,160,221)" stroke-width="2" /><path d="M +887.4012479768135,48.32515521207824 L 883.7975404248573,58.01299853483215 " fill="rgb(236,160,221)" stroke="rgb(236,160,221)" stroke-width="2" /><path d="M +883.7975404248573,58.01299853483215 L 882.0494504855014,71.32243437925354 " fill="rgb(236,160,221)" stroke="rgb(236,160,221)" stroke-width="2" /><path d="M +882.0494504855014,71.32243437925354 L 882.9265492246486,88.46244616666809 " fill="rgb(236,160,221)" stroke="rgb(236,160,221)" stroke-width="2" /><path d="M 978.6648838804103,132.60868354002014 " fill="rgb(161,74,234)" stroke="rgb(161,74,234)" stroke-width="2" /><path d="M +978.6648838804103,132.60868354002014 L 979.9394400999881,131.44614910939708 " fill="rgb(161,74,234)" stroke="rgb(161,74,234)" stroke-width="2" /><path d="M +979.9394400999881,131.44614910939708 L 979.7346409060992,128.1047189817764 " fill="rgb(161,74,234)" stroke="rgb(161,74,234)" stroke-width="2" /><path d="M +979.7346409060992,128.1047189817764 L 977.986503879074,123.91728764632717 " fill="rgb(161,74,234)" stroke="rgb(161,74,234)" stroke-width="2" /><path d="M +977.986503879074,123.91728764632717 L 973.1692260899581,117.90716832736507 " fill="rgb(161,74,234)" stroke="rgb(161,74,234)" stroke-width="2" /><path d="M +973.1692260899581,117.90716832736507 L 967.692229191307,113.91410535434261 " fill="rgb(161,74,234)" stroke="rgb(161,74,234)" stroke-width="2" /><path d="M +967.692229191307,113.91410535434261 L 959.3047959008254,110.50529157975689 " fill="rgb(161,74,234)" stroke="rgb(161,74,234)" stroke-width="2" /><path d="M +959.3047959008254,110.50529157975689 L 948.5607284703292,110.72616458171979 " fill="rgb(161,74,234)" stroke="rgb(161,74,234)" stroke-width="2" /><path d="M +948.5607284703292,110.72616458171979 L 937.1096557774581,113.36034268373623 " fill="rgb(161,74,234)" stroke="rgb(161,74,234)" stroke-width="2" /><path d="M +937.1096557774581,113.36034268373623 L 929.801871816162,120.4011145257391 " fill="rgb(161,74,234)" stroke="rgb(161,74,234)" stroke-width="2" /><path d="M +929.801871816162,120.4011145257391 L 920.3760022320785,128.77721697324887 " fill="rgb(161,74,234)" stroke="rgb(161,74,234)" stroke-width="2" /><path d="M +920.3760022320785,128.77721697324887 L 918.4973413147964,139.89982277387753 " fill="rgb(161,74,234)" stroke="rgb(161,74,234)" stroke-width="2" /><path d="M +918.4973413147964,139.89982277387753 L 914.7859731712379,149.6793505572714 " fill="rgb(161,74,234)" stroke="rgb(161,74,234)" stroke-width="2" /><path d="M +914.7859731712379,149.6793505572714 L 916.5375848510303,161.15474432939664 " fill="rgb(161,74,234)" stroke="rgb(161,74,234)" stroke-width="2" /><path d="M +916.5375848510303,161.15474432939664 L 918.3862243988551,172.41683215135708 " fill="rgb(161,74,234)" stroke="rgb(161,74,234)" stroke-width="2" /><path d="M +918.3862243988551,172.41683215135708 L 924.0532921650447,181.92736178869382 " fill="rgb(161,74,234)" stroke="rgb(161,74,234)" stroke-width="2" /><path d="M +924.0532921650447,181.92736178869382 L 930.2131037809886,189.9049672507681 " fill="rgb(161,74,234)" stroke="rgb(161,74,234)" stroke-width="2" /><path d="M +930.2131037809886,189.9049672507681 L 936.2785898544826,195.23483962053433 " fill="rgb(161,74,234)" stroke="rgb(161,74,234)" stroke-width="2" /><path d="M +936.2785898544826,195.23483962053433 L 940.8704226114787,197.82824635738507 " fill="rgb(161,74,234)" stroke="rgb(161,74,234)" stroke-width="2" /><path d="M +940.8704226114787,197.82824635738507 L 946.4044838049449,196.96982957655564 " fill="rgb(161,74,234)" stroke="rgb(161,74,234)" stroke-width="2" /><path d="M +946.4044838049449,196.96982957655564 L 950.4036514856853,193.13809879356995 " fill="rgb(161,74,234)" stroke="rgb(161,74,234)" stroke-width="2" /><path d="M +950.4036514856853,193.13809879356995 L 957.3470835783519,185.3374446206726 " fill="rgb(161,74,234)" stroke="rgb(161,74,234)" stroke-width="2" /><path d="M +957.3470835783519,185.3374446206726 L 961.5298988320865,170.8594597154297 " fill="rgb(161,74,234)" stroke="rgb(161,74,234)" stroke-width="2" /><path d="M +961.5298988320865,170.8594597154297 L 965.8281125524081,155.24623163277283 " fill="rgb(161,74,234)" stroke="rgb(161,74,234)" stroke-width="2" /><path d="M +965.8281125524081,155.24623163277283 L 966.9653641828336,137.24470503861085 " fill="rgb(161,74,234)" stroke="rgb(161,74,234)" stroke-width="2" /><path d="M +966.9653641828336,137.24470503861085 L 969.683063889388,120.46311028534546 " fill="rgb(161,74,234)" stroke="rgb(161,74,234)" stroke-width="2" /><path d="M +969.683063889388,120.46311028534546 L 974.4949233182706,107.29162104660645 " fill="rgb(161,74,234)" stroke="rgb(161,74,234)" stroke-width="2" /><path d="M +974.4949233182706,107.29162104660645 L 972.8750104852952,95.29004462296143 " fill="rgb(161,74,234)" stroke="rgb(161,74,234)" stroke-width="2" /><path d="M +972.8750104852952,95.29004462296143 L 973.8093851902522,88.99804421002045 " fill="rgb(161,74,234)" stroke="rgb(161,74,234)" stroke-width="2" /><path d="M +973.8093851902522,88.99804421002045 L 975.3712043561973,88.29792812699452 " fill="rgb(161,74,234)" stroke="rgb(161,74,234)" stroke-width="2" /><path d="M +975.3712043561973,88.29792812699452 L 976.1411676206626,89.08498443895951 " fill="rgb(161,74,234)" stroke="rgb(161,74,234)" stroke-width="2" /><path d="M +976.1411676206626,89.08498443895951 L 975.7046180241741,92.61252112919465 " fill="rgb(161,74,234)" stroke="rgb(161,74,234)" stroke-width="2" /><path d="M +975.7046180241741,92.61252112919465 L 976.1833202489652,103.99494834477082 " fill="rgb(161,74,234)" stroke="rgb(161,74,234)" stroke-width="2" /><path d="M +976.1833202489652,103.99494834477082 L 976.4169681840576,120.90034194523469 " fill="rgb(161,74,234)" stroke="rgb(161,74,234)" stroke-width="2" /><path d="M +976.4169681840576,120.90034194523469 L 974.4463429623283,140.7056088023819 " fill="rgb(161,74,234)" stroke="rgb(161,74,234)" stroke-width="2" /><path d="M +974.4463429623283,140.7056088023819 L 970.6497890525497,160.56184835964814 " fill="rgb(161,74,234)" stroke="rgb(161,74,234)" stroke-width="2" /><path d="M +970.6497890525497,160.56184835964814 L 970.1239092298783,175.89901753002778 " fill="rgb(161,74,234)" stroke="rgb(161,74,234)" stroke-width="2" /><path d="M +970.1239092298783,175.89901753002778 L 971.58541318262,184.11290116840973 " fill="rgb(161,74,234)" stroke="rgb(161,74,234)" stroke-width="2" /><path d="M +971.58541318262,184.11290116840973 L 974.8370554693975,185.9055768721737 " fill="rgb(161,74,234)" stroke="rgb(161,74,234)" stroke-width="2" /><path d="M +974.8370554693975,185.9055768721737 L 977.5552197941579,182.75146149331704 " fill="rgb(161,74,234)" stroke="rgb(161,74,234)" stroke-width="2" /><path d="M +977.5552197941579,182.75146149331704 L 980.4961788305081,170.34505866700783 " fill="rgb(161,74,234)" stroke="rgb(161,74,234)" stroke-width="2" /><path d="M 1040.2670967229642,116.80230640107766 " fill="rgb(194,161,144)" stroke="rgb(194,161,144)" stroke-width="2" /><path d="M +1040.2670967229642,116.80230640107766 L 1042.1443687030114,116.18497632676736 " fill="rgb(194,161,144)" stroke="rgb(194,161,144)" stroke-width="2" /><path d="M +1042.1443687030114,116.18497632676736 L 1043.7376562901773,115.23718647891656 " fill="rgb(194,161,144)" stroke="rgb(194,161,144)" stroke-width="2" /><path d="M +1043.7376562901773,115.23718647891656 L 1043.3106390782632,111.42766289645806 " fill="rgb(194,161,144)" stroke="rgb(194,161,144)" stroke-width="2" /><path d="M +1043.3106390782632,111.42766289645806 L 1041.6833161958493,106.59882955485955 " fill="rgb(194,161,144)" stroke="rgb(194,161,144)" stroke-width="2" /><path d="M +1041.6833161958493,106.59882955485955 L 1041.472624244634,104.25962411100045 " fill="rgb(194,161,144)" stroke="rgb(194,161,144)" stroke-width="2" /><path d="M +1041.472624244634,104.25962411100045 L 1040.6759283714928,102.93665059143677 " fill="rgb(194,161,144)" stroke="rgb(194,161,144)" stroke-width="2" /><path d="M +1040.6759283714928,102.93665059143677 L 1038.2446070783772,103.7779288017191 " fill="rgb(194,161,144)" stroke="rgb(194,161,144)" stroke-width="2" /><path d="M +1038.2446070783772,103.7779288017191 L 1034.2860414856113,104.78250667685643 " fill="rgb(194,161,144)" stroke="rgb(194,161,144)" stroke-width="2" /><path d="M +1034.2860414856113,104.78250667685643 L 1031.4193763607182,109.9247942888178 " fill="rgb(194,161,144)" stroke="rgb(194,161,144)" stroke-width="2" /><path d="M +1031.4193763607182,109.9247942888178 L 1027.8918879502453,117.87247821921483 " fill="rgb(194,161,144)" stroke="rgb(194,161,144)" stroke-width="2" /><path d="M +1027.8918879502453,117.87247821921483 L 1025.3817915194668,127.06938311690465 " fill="rgb(194,161,144)" stroke="rgb(194,161,144)" stroke-width="2" /><path d="M +1025.3817915194668,127.06938311690465 L 1024.949320817832,137.68973753089085 " fill="rgb(194,161,144)" stroke="rgb(194,161,144)" stroke-width="2" /><path d="M +1024.949320817832,137.68973753089085 L 1027.3876125761308,148.91176507109776 " fill="rgb(194,161,144)" stroke="rgb(194,161,144)" stroke-width="2" /></svg>